<svg width="200" height="40" viewBox="0 0 200 40" fill="none" xmlns="http://www.w3.org/2000/svg">
  <!-- House Icon -->
  <path d="M20 5L35 20V35H25V25H15V35H5V20L20 5Z" fill="#1D4ED8" stroke="#1E3A8A" stroke-width="2" />
  <!-- Sun -->
  <circle cx="30" cy="12" r="6" fill="#F59E0B" />
  <path d="M30 4V2M30 22V20M22 12H20M40 12H38M24 6L22 4M36 20L38 18M24 18L22 20M36 4L38 6" stroke="#F59E0B" stroke-width="2" stroke-linecap="round" />
  <!-- Palm Tree -->
  <path d="M10 35V20C10 20 5 18 5 14C5 10 8 9 10 10C10 10 10 6 14 6C18 6 18 10 18 10C20 9 23 10 23 14C23 18 18 20 18 20V35" stroke="#047857" stroke-width="2" />
  <path d="M4 16C4 16 8 15 9 13M24 16C24 16 20 15 19 13M7 10C7 10 10 12 14 11M21 10C21 10 18 12 14 11" stroke="#047857" stroke-width="2" />
  
  <!-- Text -->
  <path d="M50 25H55V28H50V25ZM50 12H63V15H55V17H60V20H55V22H63V25H50V12Z" fill="#1D4ED8" />
  <path d="M65 12H70V19C70 19.5 70 20 70.5 20.5C71 21 71.5 21 72 21C72.5 21 73 21 73.5 20.5C74 20 74 19.5 74 19V12H79V19C79 21 78.5 23 77 24.5C75.5 26 74 26.5 72 26.5C70 26.5 68.5 26 67 24.5C65.5 23 65 21 65 19V12Z" fill="#1D4ED8" />
  <path d="M81 12H86V22H94V12H99V28H81V12Z" fill="#1D4ED8" />
  <path d="M101 12H114V15H106V17H111V20H106V25H101V12Z" fill="#1D4ED8" />
  <path d="M115 12H120V15H125V12H130V28H125V18H120V28H115V12Z" fill="#1D4ED8" />
  <path d="M131 12H137C139 12 140.5 12.5 142 13.5C143.5 14.5 144 16 144 18C144 20 143.5 21.5 142 22.5C140.5 23.5 139 24 137 24H136V28H131V12ZM136 20H137C138 20 139 19 139 18C139 17 138 16 137 16H136V20Z" fill="#1D4ED8" />
  <path d="M151 12H146V28H151V12ZM146 9.5C146 8.83333 146.167 8.33333 146.5 8C146.833 7.66667 147.333 7.5 148 7.5C148.667 7.5 149.167 7.66667 149.5 8C149.833 8.33333 150 8.83333 150 9.5C150 10.1667 149.833 10.6667 149.5 11C149.167 11.3333 148.667 11.5 148 11.5C147.333 11.5 146.833 11.3333 146.5 11C146.167 10.6667 146 10.1667 146 9.5Z" fill="#1D4ED8" />
  <path d="M160 12H153V15H155V28H160V15H162V12H160Z" fill="#1D4ED8" />
  <path d="M173 28H168V15H166V25.5L161 12H156V28H161V15H163V28H173Z" fill="#1D4ED8" />
  <path d="M180 28H175V12H180V25H186V28H180Z" fill="#1D4ED8" />
  <path d="M188 25H193V28H188V25ZM188 12H201V15H193V17H198V20H193V22H201V25H188V12Z" fill="#1D4ED8" />
  
  <!-- Orlando -->
  <path d="M58 35H60C61.5 35 62.5 35.5 63 36.5C63.5 37.5 64 38.5 64 39.5C64 40.5 63.5 41.5 63 42.5C62.5 43.5 61.5 44 60 44H58V35ZM60 42.5C61.5 42.5 62 41.5 62 39.5C62 37.5 61.5 36.5 60 36.5H60V42.5Z" fill="#64748B" />
  <path d="M65 35H67V39.5H71V35H73V44H71V41H67V44H65V35Z" fill="#64748B" />
  <path d="M74 35H76V44H74V35Z" fill="#64748B" />
  <path d="M79 35H81L85 40.5V35H87V44H86L81 37.5V44H79V35Z" fill="#64748B" />
  <path d="M89 35H91C92.5 35 93.5 35.5 94 36.5C94.5 37.5 95 38.5 95 39.5C95 40.5 94.5 41.5 94 42.5C93.5 43.5 92.5 44 91 44H89V35ZM91 42.5C92.5 42.5 93 41.5 93 39.5C93 37.5 92.5 36.5 91 36.5H91V42.5Z" fill="#64748B" />
  <path d="M98 44H96V35H102V36.5H98V38.5H101V40H98V44Z" fill="#64748B" />
  <path d="M103 35H105C106.5 35 107.5 35.5 108 36.5C108.5 37 108.5 37.5 108.5 38.5C108.5 39.5 108.5 40 108 40.5C108 40.5 107.5 41 107 41L109 44H107L105.5 41.5H105V44H103V35ZM105 40C106 40 106.5 39.5 106.5 38.5C106.5 37.5 106 37 105 37H105V40Z" fill="#64748B" />
  <path d="M112 35H114C115.5 35 116.5 35.5 117 36.5C117.5 37.5 118 38.5 118 39.5C118 40.5 117.5 41.5 117 42.5C116.5 43.5 115.5 44 114 44H112V35ZM114 42.5C115.5 42.5 116 41.5 116 39.5C116 37.5 115.5 36.5 114 36.5H114V42.5Z" fill="#64748B" />
  <path d="M119 35H125V36.5H121V38.5H124V40H121V42.5H125V44H119V35Z" fill="#64748B" />
</svg> 